<svg width="108" height="51" viewBox="0 0 108 51" fill="none" xmlns="http://www.w3.org/2000/svg">
<path d="M10.0756 19.5576L6.16718 12.6545H4.49214V19.5576H0.939036V1.84286H7.58842C8.95891 1.84286 10.1264 2.0882 11.0908 2.57886C12.0552 3.05261 12.7743 3.70402 13.248 4.53307C13.7387 5.34521 13.984 6.25887 13.984 7.27404C13.984 8.44149 13.6456 9.49897 12.9688 10.4465C12.2921 11.377 11.2853 12.02 9.9487 12.3753L14.1871 19.5576H10.0756ZM4.49214 9.98963H7.46153C8.42594 9.98963 9.14502 9.76122 9.61877 9.30439C10.0925 8.83064 10.3294 8.17924 10.3294 7.35018C10.3294 6.53804 10.0925 5.91202 9.61877 5.47211C9.14502 5.01528 8.42594 4.78687 7.46153 4.78687H4.49214V9.98963Z" fill="white"/>
<path d="M16.284 12.4768C16.284 11.0556 16.5632 9.79506 17.1215 8.69529C17.6968 7.59551 18.4666 6.74954 19.4311 6.15735C20.4124 5.56517 21.5037 5.26907 22.705 5.26907C23.754 5.26907 24.6677 5.48057 25.446 5.90356C26.2412 6.32655 26.8757 6.85951 27.3494 7.50246V5.49749H30.9279V19.5576H27.3494V17.5019C26.8926 18.1618 26.2581 18.7117 25.446 19.1516C24.6507 19.5746 23.7286 19.7861 22.6796 19.7861C21.4952 19.7861 20.4124 19.4815 19.4311 18.8724C18.4666 18.2633 17.6968 17.4089 17.1215 16.3091C16.5632 15.1924 16.284 13.915 16.284 12.4768ZM27.3494 12.5276C27.3494 11.6647 27.1802 10.9287 26.8418 10.3196C26.5034 9.69354 26.0466 9.21979 25.4713 8.89832C24.8961 8.55993 24.2785 8.39073 23.6186 8.39073C22.9588 8.39073 22.3497 8.55147 21.7913 8.87294C21.233 9.19441 20.7762 9.66816 20.4209 10.2942C20.0825 10.9033 19.9133 11.6308 19.9133 12.4768C19.9133 13.3228 20.0825 14.0672 20.4209 14.7102C20.7762 15.3362 21.233 15.8184 21.7913 16.1568C22.3666 16.4952 22.9757 16.6644 23.6186 16.6644C24.2785 16.6644 24.8961 16.5037 25.4713 16.1822C26.0466 15.8438 26.5034 15.3701 26.8418 14.7609C27.1802 14.1349 27.3494 13.3905 27.3494 12.5276Z" fill="white"/>
<path d="M37.9512 7.52784C38.4081 6.88489 39.0341 6.35193 39.8293 5.92894C40.6414 5.48903 41.5636 5.26907 42.5957 5.26907C43.7969 5.26907 44.8798 5.56517 45.8442 6.15735C46.8255 6.74954 47.5954 7.59551 48.1537 8.69529C48.729 9.77814 49.0166 11.0386 49.0166 12.4768C49.0166 13.915 48.729 15.1924 48.1537 16.3091C47.5954 17.4089 46.8255 18.2633 45.8442 18.8724C44.8798 19.4815 43.7969 19.7861 42.5957 19.7861C41.5636 19.7861 40.6499 19.5746 39.8547 19.1516C39.0764 18.7286 38.4419 18.1956 37.9512 17.5527V26.2578H34.3981V5.49749H37.9512V7.52784ZM45.3874 12.4768C45.3874 11.6308 45.2097 10.9033 44.8544 10.2942C44.516 9.66816 44.0592 9.19441 43.4839 8.87294C42.9256 8.55147 42.3165 8.39073 41.6566 8.39073C41.0137 8.39073 40.4046 8.55993 39.8293 8.89832C39.271 9.21979 38.8141 9.69354 38.4588 10.3196C38.1204 10.9456 37.9512 11.6816 37.9512 12.5276C37.9512 13.3735 38.1204 14.1095 38.4588 14.7356C38.8141 15.3616 39.271 15.8438 39.8293 16.1822C40.4046 16.5037 41.0137 16.6644 41.6566 16.6644C42.3165 16.6644 42.9256 16.4952 43.4839 16.1568C44.0592 15.8184 44.516 15.3362 44.8544 14.7102C45.2097 14.0842 45.3874 13.3397 45.3874 12.4768Z" fill="white"/>
<path d="M59.5169 5.29445C60.5829 5.29445 61.5304 5.53133 62.3594 6.00508C63.1885 6.4619 63.8314 7.14715 64.2883 8.0608C64.762 8.95754 64.9989 10.0404 64.9989 11.3094V19.5576H61.4458V11.7916C61.4458 10.6749 61.1666 9.82044 60.6082 9.22825C60.0499 8.61915 59.2885 8.3146 58.3241 8.3146C57.3428 8.3146 56.5645 8.61915 55.9892 9.22825C55.4309 9.82044 55.1517 10.6749 55.1517 11.7916V19.5576H51.5986V0.776932H55.1517V7.24866C55.6085 6.63956 56.2176 6.16581 56.979 5.82742C57.7404 5.47211 58.5864 5.29445 59.5169 5.29445Z" fill="white"/>
<path d="M67.464 12.4768C67.464 11.0556 67.7432 9.79506 68.3016 8.69529C68.8768 7.59551 69.6467 6.74954 70.6111 6.15735C71.5924 5.56517 72.6837 5.26907 73.885 5.26907C74.934 5.26907 75.8477 5.48057 76.626 5.90356C77.4212 6.32655 78.0557 6.85951 78.5294 7.50246V5.49749H82.1079V19.5576H78.5294V17.5019C78.0726 18.1618 77.4381 18.7117 76.626 19.1516C75.8308 19.5746 74.9086 19.7861 73.8596 19.7861C72.6753 19.7861 71.5924 19.4815 70.6111 18.8724C69.6467 18.2633 68.8768 17.4089 68.3016 16.3091C67.7432 15.1924 67.464 13.915 67.464 12.4768ZM78.5294 12.5276C78.5294 11.6647 78.3602 10.9287 78.0218 10.3196C77.6835 9.69354 77.2266 9.21979 76.6514 8.89832C76.0761 8.55993 75.4585 8.39073 74.7987 8.39073C74.1388 8.39073 73.5297 8.55147 72.9714 8.87294C72.413 9.19441 71.9562 9.66816 71.6009 10.2942C71.2625 10.9033 71.0933 11.6308 71.0933 12.4768C71.0933 13.3228 71.2625 14.0672 71.6009 14.7102C71.9562 15.3362 72.413 15.8184 72.9714 16.1568C73.5466 16.4952 74.1557 16.6644 74.7987 16.6644C75.4585 16.6644 76.0761 16.5037 76.6514 16.1822C77.2266 15.8438 77.6835 15.3701 78.0218 14.7609C78.3602 14.1349 78.5294 13.3905 78.5294 12.5276Z" fill="white"/>
<path d="M98.6485 12.223C98.6485 12.7306 98.6147 13.1874 98.547 13.5935H88.2684C88.353 14.6087 88.7083 15.4039 89.3343 15.9792C89.9603 16.5544 90.7302 16.8421 91.6438 16.8421C92.9635 16.8421 93.9026 16.2753 94.4609 15.1416H98.2932C97.8871 16.4952 97.1088 17.6119 95.9583 18.4917C94.8078 19.3546 93.395 19.7861 91.72 19.7861C90.3664 19.7861 89.1482 19.49 88.0653 18.8978C86.9994 18.2887 86.1619 17.4342 85.5528 16.3345C84.9606 15.2347 84.6645 13.9657 84.6645 12.5276C84.6645 11.0725 84.9606 9.79506 85.5528 8.69529C86.145 7.59551 86.974 6.74954 88.0399 6.15735C89.1059 5.56517 90.3325 5.26907 91.72 5.26907C93.0566 5.26907 94.2494 5.55671 95.2984 6.13197C96.3644 6.70724 97.185 7.52784 97.7602 8.59377C98.3524 9.64278 98.6485 10.8525 98.6485 12.223ZM94.9685 11.2078C94.9516 10.2942 94.6217 9.56664 93.9787 9.02522C93.3358 8.46687 92.549 8.1877 91.6184 8.1877C90.7386 8.1877 89.9942 8.45841 89.385 8.99984C88.7929 9.52434 88.4291 10.2603 88.2937 11.2078H94.9685ZM89.3089 3.77169C88.8352 3.77169 88.4376 3.61096 88.1161 3.28949C87.7946 2.96801 87.6339 2.5704 87.6339 2.09666C87.6339 1.62291 87.7946 1.2253 88.1161 0.903828C88.4376 0.565436 88.8352 0.39624 89.3089 0.39624C89.7827 0.39624 90.1803 0.565436 90.5017 0.903828C90.8401 1.2253 91.0093 1.62291 91.0093 2.09666C91.0093 2.5704 90.8401 2.96801 90.5017 3.28949C90.1803 3.61096 89.7827 3.77169 89.3089 3.77169ZM94.0041 3.77169C93.5303 3.77169 93.1327 3.61096 92.8113 3.28949C92.4898 2.96801 92.3291 2.5704 92.3291 2.09666C92.3291 1.62291 92.4898 1.2253 92.8113 0.903828C93.1327 0.565436 93.5303 0.39624 94.0041 0.39624C94.4778 0.39624 94.8754 0.565436 95.1969 0.903828C95.5353 1.2253 95.7045 1.62291 95.7045 2.09666C95.7045 2.5704 95.5353 2.96801 95.1969 3.28949C94.8754 3.61096 94.4778 3.77169 94.0041 3.77169Z" fill="white"/>
<path d="M104.795 0.776932V19.5576H101.242V0.776932H104.795Z" fill="white"/>
<path d="M12.9942 32.6606V35.5285H8.27367V50.3754H4.72056V35.5285H0V32.6606H12.9942Z" fill="white"/>
<path d="M23.505 36.1122C24.571 36.1122 25.5185 36.3491 26.3475 36.8228C27.1766 37.2797 27.8195 37.9649 28.2764 38.8786C28.7501 39.7753 28.987 40.8582 28.987 42.1271V50.3754H25.4339V42.6093C25.4339 41.4926 25.1547 40.6382 24.5963 40.046C24.038 39.4369 23.2766 39.1324 22.3122 39.1324C21.3309 39.1324 20.5526 39.4369 19.9773 40.046C19.419 40.6382 19.1398 41.4926 19.1398 42.6093V50.3754H15.5867V31.5947H19.1398V38.0664C19.5966 37.4573 20.2057 36.9836 20.9671 36.6452C21.7285 36.2899 22.5745 36.1122 23.505 36.1122Z" fill="white"/>
<path d="M34.1677 34.6402C33.5417 34.6402 33.0172 34.4457 32.5942 34.0565C32.1881 33.6504 31.9851 33.1513 31.9851 32.5591C31.9851 31.9669 32.1881 31.4763 32.5942 31.0871C33.0172 30.681 33.5417 30.478 34.1677 30.478C34.7938 30.478 35.3098 30.681 35.7159 31.0871C36.1389 31.4763 36.3504 31.9669 36.3504 32.5591C36.3504 33.1513 36.1389 33.6504 35.7159 34.0565C35.3098 34.4457 34.7938 34.6402 34.1677 34.6402ZM35.9189 36.3153V50.3754H32.3658V36.3153H35.9189Z" fill="white"/>
<path d="M52.4997 43.0408C52.4997 43.5484 52.4659 44.0052 52.3982 44.4113H42.1196C42.2042 45.4264 42.5595 46.2217 43.1855 46.7969C43.8116 47.3722 44.5814 47.6598 45.495 47.6598C46.8148 47.6598 47.7538 47.093 48.3122 45.9594H52.1444C51.7384 47.313 50.9601 48.4297 49.8095 49.3095C48.659 50.1724 47.2462 50.6038 45.5712 50.6038C44.2176 50.6038 42.9994 50.3077 41.9166 49.7156C40.8506 49.1065 40.0131 48.252 39.404 47.1522C38.8118 46.0525 38.5157 44.7835 38.5157 43.3453C38.5157 41.8903 38.8118 40.6128 39.404 39.5131C39.9962 38.4133 40.8252 37.5673 41.8912 36.9751C42.9571 36.3829 44.1838 36.0868 45.5712 36.0868C46.9078 36.0868 48.1007 36.3745 49.1497 36.9497C50.2156 37.525 51.0362 38.3456 51.6115 39.4115C52.2037 40.4606 52.4997 41.6703 52.4997 43.0408ZM48.8197 42.0256C48.8028 41.112 48.4729 40.3844 47.8299 39.843C47.187 39.2846 46.4002 39.0055 45.4697 39.0055C44.5899 39.0055 43.8454 39.2762 43.2363 39.8176C42.6441 40.3421 42.2803 41.0781 42.145 42.0256H48.8197Z" fill="white"/>
<path d="M68.3666 36.3153V50.3754H64.7881V48.5989C64.3313 49.208 63.7306 49.6902 62.9862 50.0455C62.2586 50.3839 61.4634 50.5531 60.6005 50.5531C59.5007 50.5531 58.5279 50.3247 57.6819 49.8678C56.8359 49.3941 56.1676 48.7088 55.6769 47.8121C55.2032 46.8984 54.9663 45.8156 54.9663 44.5635V36.3153H58.5194V44.056C58.5194 45.1727 58.7986 46.0356 59.3569 46.6447C59.9153 47.2368 60.6767 47.5329 61.6411 47.5329C62.6224 47.5329 63.3922 47.2368 63.9506 46.6447C64.5089 46.0356 64.7881 45.1727 64.7881 44.056V36.3153H68.3666Z" fill="white"/>
<path d="M75.4254 31.5947V50.3754H71.8723V31.5947H75.4254Z" fill="white"/>
<path d="M92.0063 43.0408C92.0063 43.5484 91.9724 44.0052 91.9047 44.4113H81.6261C81.7107 45.4264 82.066 46.2217 82.692 46.7969C83.3181 47.3722 84.0879 47.6598 85.0016 47.6598C86.3213 47.6598 87.2603 47.093 87.8187 45.9594H91.6509C91.2449 47.313 90.4666 48.4297 89.316 49.3095C88.1655 50.1724 86.7527 50.6038 85.0777 50.6038C83.7241 50.6038 82.5059 50.3077 81.4231 49.7156C80.3571 49.1065 79.5196 48.252 78.9105 47.1522C78.3183 46.0525 78.0222 44.7835 78.0222 43.3453C78.0222 41.8903 78.3183 40.6128 78.9105 39.5131C79.5027 38.4133 80.3318 37.5673 81.3977 36.9751C82.4636 36.3829 83.6903 36.0868 85.0777 36.0868C86.4143 36.0868 87.6072 36.3745 88.6562 36.9497C89.7221 37.525 90.5427 38.3456 91.118 39.4115C91.7102 40.4606 92.0063 41.6703 92.0063 43.0408ZM88.3263 42.0256C88.3093 41.112 87.9794 40.3844 87.3365 39.843C86.6935 39.2846 85.9068 39.0055 84.9762 39.0055C84.0964 39.0055 83.3519 39.2762 82.7428 39.8176C82.1506 40.3421 81.7868 41.0781 81.6515 42.0256H88.3263Z" fill="white"/>
<path d="M102.391 36.1122C104.066 36.1122 105.42 36.6452 106.452 37.7111C107.484 38.7601 108 40.2321 108 42.1271V50.3754H104.447V42.6093C104.447 41.4926 104.168 40.6382 103.609 40.046C103.051 39.4369 102.29 39.1324 101.325 39.1324C100.344 39.1324 99.5656 39.4369 98.9903 40.046C98.432 40.6382 98.1528 41.4926 98.1528 42.6093V50.3754H94.5997V36.3153H98.1528V38.0664C98.6266 37.4573 99.2272 36.9836 99.9547 36.6452C100.699 36.2899 101.511 36.1122 102.391 36.1122Z" fill="white"/>
</svg>
